<svg width="20" height="16" viewBox="0 0 20 16" fill="none" xmlns="http://www.w3.org/2000/svg">
<path d="M10.3639 0C13.899 0 16.8505 2.64801 17.5484 6.17435L18.6379 3.97149L18.7005 3.86634C18.9092 3.57229 19.2944 3.47372 19.6125 3.65084C19.9659 3.84764 20.1025 4.31028 19.9176 4.68418L17.2338 10.1114L12.9468 6.21056L12.8558 6.11151C12.6397 5.82959 12.6375 5.41629 12.8681 5.13163L12.9613 5.03545C13.2269 4.80721 13.617 4.80586 13.8863 5.05087L16.2346 7.18749C15.9534 4.01384 13.4323 1.5303 10.3639 1.5303C8.92407 1.5303 7.60473 2.07718 6.58081 2.98563C6.3051 3.23025 5.99411 3.55556 5.56969 3.11111C5.14526 2.66667 5.37957 2.06188 5.56965 1.88801C6.85587 0.711496 8.53151 0 10.3639 0Z" fill="#FF3366"/>
<path d="M9.63606 16C6.10095 16 3.14948 13.352 2.45162 9.82565L1.36214 12.0285L1.29946 12.1337C1.09081 12.4277 0.705554 12.5263 0.387512 12.3492C0.0341306 12.1524 -0.102456 11.6897 0.0824346 11.3158L2.76621 5.88858L7.05319 9.78944L7.14422 9.88849C7.36031 10.1704 7.36254 10.5837 7.13194 10.8684L7.03867 10.9646C6.7731 11.1928 6.38298 11.1941 6.11372 10.9491L3.76543 8.81251C4.04665 11.9862 6.56766 14.4697 9.63606 14.4697C11.0759 14.4697 12.3953 13.9228 13.4192 13.0144C13.6949 12.7697 14.0059 12.4444 14.4303 12.8889C14.8547 13.3333 14.6204 13.9381 14.4303 14.112C13.1441 15.2885 11.4685 16 9.63606 16Z" fill="#FF3366"/>
</svg>
